<svg xmlns="http://www.w3.org/2000/svg" viewBox="0 0 475.88 397.17"><defs><style>.cls-1{isolation:isolate;}.cls-2{fill:#e6e7e8;}.cls-3{fill:#bcbec0;}.cls-4{fill:#f1f2f2;}.cls-5{fill:#d1d3d4;}.cls-10,.cls-11,.cls-6,.cls-9{fill:none;}.cls-6,.cls-9{stroke:#808285;}.cls-10,.cls-11,.cls-6,.cls-8,.cls-9{stroke-miterlimit:10;stroke-width:2px;}.cls-7{fill:#808285;}.cls-8{fill:#a7cf38;fill-opacity:0.88;stroke:#00a651;mix-blend-mode:multiply;}.cls-9{stroke-dasharray:6.04 6.04;}.cls-10{stroke:#ee2a7b;stroke-dasharray:6 6;}.cls-11{stroke:#92278f;stroke-dasharray:5.97 5.97;}.cls-12{fill:#662d91;}.cls-13{font-size:8px;font-family:Hind-Light, Hind;font-weight:300;}.cls-13,.cls-14,.cls-29{fill:#231f20;}.cls-14,.cls-22{font-size:12px;font-family:MyriadPro-Bold, Myriad Pro;font-weight:700;}.cls-15{letter-spacing:-0.01em;}.cls-16{letter-spacing:-0.01em;}.cls-17{letter-spacing:0.01em;}.cls-18{letter-spacing:0em;}.cls-19{letter-spacing:0.02em;}.cls-20{letter-spacing:0em;}.cls-21{letter-spacing:0.01em;}.cls-22{fill:#fff;}.cls-23{letter-spacing:-0.01em;}.cls-24{letter-spacing:0em;}.cls-25{letter-spacing:0.01em;}.cls-26{letter-spacing:-0.02em;}.cls-27{letter-spacing:0em;}.cls-28{letter-spacing:0.02em;}.cls-29{font-size:10px;font-family:MyriadPro-Regular, Myriad Pro;}.cls-30{letter-spacing:0.01em;}.cls-31{letter-spacing:0em;}.cls-32{letter-spacing:-0.01em;}.cls-33{letter-spacing:-0.01em;}.cls-34{letter-spacing:-0.01em;}.cls-35{letter-spacing:0.02em;}</style></defs><g class="cls-1"><g id="Layer_2" data-name="Layer 2"><g id="Layer_2-2" data-name="Layer 2"><rect class="cls-2" x="73.25" y="28.2" width="169.75" height="169.75"></rect><rect class="cls-3" x="73.25" y="197.96" width="169.75" height="169.75"></rect><rect class="cls-4" x="243" y="28.2" width="169.75" height="169.75"></rect><rect class="cls-5" x="243" y="197.96" width="169.75" height="169.75"></rect><line class="cls-6" x1="57.1" y1="197.96" x2="420.26" y2="197.96"></line><polygon class="cls-7" points="418.8 202.94 427.44 197.96 418.8 192.97 418.8 202.94"></polygon><line class="cls-6" x1="242.27" y1="383.13" x2="242.27" y2="19.96"></line><polygon class="cls-7" points="247.25 21.42 242.27 12.79 237.28 21.42 247.25 21.42"></polygon><path class="cls-8" d="M217.45,148c-61.62-11.85-143.2,41.67-133.72,94.3,7.45,41.33,100.86,29,142.22-4.23C271.37,201.49,267,157.53,217.45,148Z"></path><path class="cls-9" d="M339.24,184.36c-73.92-11.2-171.79,39.37-160.41,89.1,8.93,39,121,27.45,170.61-4C403.92,234.91,398.71,193.37,339.24,184.36Z"></path><path class="cls-10" d="M227.83,38.47C168.72,29.15,90.47,71.23,99.57,112.61c7.14,32.49,96.75,22.84,136.41-3.33C279.55,80.53,275.39,46,227.83,38.47Z"></path><path class="cls-11" d="M283.32,69.7c-54.75-11.49-127.22,40.37-118.79,91.37,6.61,40,89.6,28.15,126.34-4.11C331.22,121.54,327.36,78.94,283.32,69.7Z"></path><rect class="cls-12" x="245.11" y="87.99" width="8.25" height="8.25"></rect><text class="cls-13" transform="translate(198.08 94.9)">Terraskitchen</text><rect class="cls-12" x="230.51" y="109.06" width="8.25" height="8.25"></rect><text class="cls-13" transform="translate(191.63 115.81)"> GreenChef</text><rect class="cls-12" x="253.36" y="99.82" width="8.25" height="8.25"></rect><text class="cls-13" transform="translate(259.61 107.07)">  PeachDish</text><rect class="cls-12" x="146.37" y="139.08" width="8.25" height="8.25"></rect><text class="cls-13" transform="translate(77.25 146.33)">Balance.Bistrom</text><text class="cls-14" transform="matrix(1, 0, 0, 1, 126.87, 42.15)">Restau<tspan class="cls-15" x="36.4" y="0">r</tspan><tspan x="40.82" y="0">a</tspan><tspan class="cls-16" x="47.16" y="0">n</tspan><tspan x="54.12" y="0">t</tspan></text><rect class="cls-12" x="238.4" y="121.89" width="8.25" height="8.25"></rect><text class="cls-13" transform="translate(198.08 128.64)"> HomeChef</text><rect class="cls-12" x="226.13" y="133.21" width="8.25" height="8.25"></rect><text class="cls-13" transform="translate(186.74 139.96)"> BlueApron</text><rect class="cls-12" x="242.53" y="145.32" width="8.25" height="8.25"></rect><text class="cls-13" transform="translate(198.08 151.38)">PurpleCarrot</text><rect class="cls-12" x="249.23" y="154.21" width="8.25" height="8.25"></rect><text class="cls-13" transform="translate(257.48 161.46)"> HelloFresh</text><rect class="cls-12" x="253.36" y="110.06" width="8.25" height="8.25"></rect><text class="cls-13" transform="translate(259.61 117.04)">  Plated</text><text class="cls-14" transform="translate(296.75 305.49) rotate(-0.15)"><tspan class="cls-17">S</tspan><tspan x="6.56" y="0">el</tspan><tspan class="cls-18" x="16.2" y="0">f</tspan><tspan class="cls-19" x="20.26" y="0">-</tspan><tspan class="cls-15" x="24.31" y="0">c</tspan><tspan class="cls-20" x="29.59" y="0">o</tspan><tspan x="36.55" y="0">o</tspan><tspan class="cls-21" x="43.48" y="0">k</tspan><tspan x="50.1" y="0">ing</tspan></text><text class="cls-22" transform="translate(96.81 226.02) rotate(-0.15)"><tspan class="cls-23">T</tspan><tspan class="cls-24" x="6.43" y="0">he </tspan><tspan class="cls-25" x="22.22" y="0">G</tspan><tspan x="30.48" y="0">oal of </tspan><tspan class="cls-26" x="62.9" y="0">C</tspan><tspan class="cls-27" x="69.81" y="0">o</tspan><tspan class="cls-26" x="76.74" y="0">C</tspan><tspan class="cls-20" x="83.65" y="0">o</tspan><tspan x="90.61" y="0">ok</tspan></text><text class="cls-14" transform="translate(273.29 137.32) rotate(0.03)"><tspan class="cls-20">M</tspan><tspan x="10.19" y="0">eal Kit </tspan><tspan class="cls-17" x="46.07" y="0">S</tspan><tspan x="52.63" y="0">e</tspan><tspan class="cls-28" x="58.97" y="0">r</tspan><tspan class="cls-27" x="63.74" y="0">vi</tspan><tspan class="cls-15" x="73.39" y="0">c</tspan><tspan x="78.67" y="0">es</tspan></text><rect class="cls-12" x="110.24" y="59.71" width="8.25" height="8.25"></rect><text class="cls-13" transform="translate(79.2 68.08)">Chef’d</text><rect class="cls-12" x="283.92" y="79.3" width="8.25" height="8.25"></rect><text class="cls-13" transform="translate(241.37 85.18)"> FreshRealm</text><text class="cls-29" transform="translate(212.83 8.37)"><tspan class="cls-30">M</tspan><tspan class="cls-31" x="8.1" y="0">o</tspan><tspan class="cls-32" x="13.59" y="0">r</tspan><tspan x="16.76" y="0">e Expensi</tspan><tspan class="cls-32" x="55.99" y="0">v</tspan><tspan x="60.7" y="0">e</tspan></text><text class="cls-29" transform="translate(212.83 394.67)"><tspan class="cls-33">L</tspan><tspan x="4.58" y="0">ess Expensi</tspan><tspan class="cls-32" x="51.73" y="0">v</tspan><tspan x="56.44" y="0">e</tspan></text><text class="cls-29" transform="translate(429.06 201.07)"><tspan class="cls-30">M</tspan><tspan class="cls-31" x="8.1" y="0">o</tspan><tspan class="cls-32" x="13.59" y="0">r</tspan><tspan x="16.76" y="0">e E</tspan><tspan class="cls-34" x="28.81" y="0">ff</tspan><tspan x="34.51" y="0">o</tspan><tspan class="cls-35" x="40" y="0">r</tspan><tspan x="43.51" y="0">t</tspan></text><text class="cls-29" transform="translate(0 200.7)"><tspan class="cls-33">L</tspan><tspan x="4.58" y="0">ess E</tspan><tspan class="cls-34" x="24.55" y="0">ff</tspan><tspan class="cls-31" x="30.25" y="0">o</tspan><tspan class="cls-35" x="35.74" y="0">r</tspan><tspan x="39.25" y="0">t</tspan></text></g></g></g></svg>